# xmcd
#
# Track frame offsets: 
#        150
#        15604
#        41063
#        54184
#        70378
#        82835
#        97438
#        114035
#        127778
#        142650
#        157992
#        186686
#        200554
#        218217
#        231830
#        246216
#        260370
#
# Disc length: 3724 seconds
#
# Revision: 2
# Processed by: cddbd v1.5.2PL0 Copyright (c) Steve Scherf et al.
# Submitted via: ExactAudioCopyFreeDBPlugin 1.0
#
DISCID=e70e8a11
DTITLE=Various Artist - Holland Dozier Holland:  The Complete 45s Col
DTITLE=lection (Invictus, Hot Wax, Music Merchant), 1969-1977 [Harmles
DTITLE=s box set]
DYEAR=2014
DGENRE=Soul
TTITLE0=The Honey Cone - One Monkey Don't Stop No Show (Part 2)
TTITLE1=Laura Lee - Since I Fell for You
TTITLE2=100 Proof Aged in Soul - I'd Rather Fight Than Switch
TTITLE3=Laura Lee - Two Lovely Pillows
TTITLE4=The Honey Cone - It's Better to Have Loved and Lost
TTITLE5=100 Proof Aged in Soul - If I Could See the Light in the Windo
TTITLE5=w (version 2)
TTITLE6=Laura Lee - If I'm Good Enough to Love (I'm Good Enough to Mar
TTITLE6=ry)
TTITLE7=The Honey Cone - Don't Send Me an Invitation
TTITLE8=Laura Lee - You've Got to Save Me
TTITLE9=100 Proof Aged in Soul - Nothing Sweeter Than Love
TTITLE10=The Honey Cone - O-O-O Baby, Baby
TTITLE11=The Honey Cone - Woman Can't Live By Bread Alone
TTITLE12=Lee Charles - I Just Want to Be Loved
TTITLE13=Laura Lee - I Can't Hold on Much Longer
TTITLE14=100 Proof Aged in Soul - My Piece of the Rock (instrumental)
TTITLE15=The Honey Cone - The Truth Will Come Out (ft Sharon Cash)
TTITLE16=100 Proof Aged in Soul and New York Port Authority - I'm Mad 
TTITLE16=as Hell (Ain't Gonna Take No More) (Part 2)
EXTD=
EXTT0=
EXTT1=
EXTT2=
EXTT3=
EXTT4=
EXTT5=
EXTT6=
EXTT7=
EXTT8=
EXTT9=
EXTT10=
EXTT11=
EXTT12=
EXTT13=
EXTT14=
EXTT15=
EXTT16=
PLAYORDER=
